<?xml version="1.0" encoding="utf-8"?>
<!-- Generator: Adobe Illustrator 16.0.0, SVG Export Plug-In . SVG Version: 6.00 Build 0)  -->
<!DOCTYPE svg PUBLIC "-//W3C//DTD SVG 1.1//EN" "http://www.w3.org/Graphics/SVG/1.1/DTD/svg11.dtd">
<svg version="1.1" id="Слой_1" xmlns="http://www.w3.org/2000/svg" xmlns:xlink="http://www.w3.org/1999/xlink" x="0px" y="0px"
	 width="100px" height="80px" viewBox="0 0 100 80" enable-background="new 0 0 100 80" xml:space="preserve">
<g>
	<path fill="#00A7E7" d="M36.311,26.229c-2.645-2.68-6.349-4.356-10.408-4.354H3.897v6.756h22.006
		c2.193,0.001,4.151,0.887,5.604,2.349c1.447,1.468,2.34,3.469,2.34,5.719c0,2.251-0.893,4.253-2.34,5.721
		c-1.452,1.461-3.41,2.35-5.604,2.352H10.652v-5.755H3.897v12.511h22.006c4.059,0.001,7.763-1.678,10.408-4.357
		c2.652-2.677,4.294-6.397,4.293-10.471C40.605,32.627,38.963,28.906,36.311,26.229z"/>
	<path fill="#00A7E7" d="M55.63,26.229c2.645-2.68,6.348-4.356,10.407-4.354h22.006v6.756H66.037
		c-2.192,0.001-4.152,0.887-5.604,2.349c-1.446,1.468-2.339,3.469-2.34,5.719c0.001,2.251,0.894,4.253,2.34,5.721
		c1.451,1.461,3.411,2.35,5.604,2.352h15.251v-5.755h6.755v12.511H66.037c-4.06,0.001-7.763-1.678-10.407-4.357
		c-2.651-2.677-4.294-6.397-4.293-10.471C51.336,32.627,52.979,28.906,55.63,26.229z"/>
	<rect x="42.604" y="21.874" fill="#00A7E7" width="6.756" height="29.652"/>
	<rect x="91.171" y="21.874" fill="#00A7E7" width="6.756" height="29.652"/>
</g>
</svg>
