<?xml version="1.0" encoding="utf-8"?>
<!-- Generator: Adobe Illustrator 16.0.0, SVG Export Plug-In . SVG Version: 6.00 Build 0)  -->
<!DOCTYPE svg PUBLIC "-//W3C//DTD SVG 1.1//EN" "http://www.w3.org/Graphics/SVG/1.1/DTD/svg11.dtd">
<svg version="1.1" id="Слой_1" xmlns="http://www.w3.org/2000/svg" xmlns:xlink="http://www.w3.org/1999/xlink" x="0px" y="0px"
	 width="150px" height="80px" viewBox="0 0 150 80" enable-background="new 0 0 150 80" xml:space="preserve">
<g>
	<g>
		<g>
			<path fill="#FFFFFF" d="M119.369,50.348H97.273v-4.78l15.503-8.912c1.718-0.976,2.601-2.182,2.601-3.899
				c0-2.785-2.32-4.41-7.102-4.41c-3.667,0-6.22,1.207-8.727,3.481l-2.832-3.017c3.389-3.389,7.333-4.735,11.743-4.735
				c6.732,0,11.559,2.739,11.559,8.773c0,2.971-1.672,5.385-4.734,7.103l-11.049,6.172h15.134V50.348z"/>
			<path fill="#FFFFFF" d="M144.526,24.679v17.314h2.832v4.13h-2.832v4.225h-4.643v-4.225h-18.846v-4.222l14.854-17.222H144.526z
				 M126.796,41.993h13.088v-13.09h-2.135L126.796,41.993z"/>
		</g>
	</g>
	<g>
		<path fill="#36A9E1" d="M30.668,27.931c-2.345-2.375-5.627-3.862-9.226-3.86H1.936v5.988h19.506
			c1.944,0.002,3.68,0.788,4.968,2.083c1.283,1.3,2.073,3.074,2.074,5.068c-0.001,1.996-0.792,3.771-2.074,5.07
			c-1.288,1.295-3.023,2.082-4.968,2.085H7.924v-5.102H1.936v11.088h19.506c3.599,0.004,6.88-1.483,9.226-3.859
			c2.35-2.374,3.806-5.671,3.805-9.282C34.474,33.603,33.018,30.305,30.668,27.931z"/>
		<path fill="#36A9E1" d="M47.792,27.931c2.344-2.375,5.626-3.862,9.225-3.86h19.507v5.988H57.017
			c-1.944,0.002-3.681,0.788-4.967,2.083c-1.283,1.3-2.073,3.074-2.074,5.068c0.001,1.996,0.792,3.771,2.074,5.07
			c1.287,1.295,3.023,2.082,4.967,2.085h13.518v-5.102h5.989v11.088H57.017c-3.599,0.004-6.881-1.483-9.225-3.859
			c-2.351-2.374-3.807-5.671-3.806-9.282C43.985,33.603,45.442,30.305,47.792,27.931z"/>
		<rect x="36.247" y="24.071" fill="#36A9E1" width="5.988" height="26.282"/>
		<rect x="79.295" y="24.071" fill="#36A9E1" width="5.988" height="26.282"/>
	</g>
</g>
</svg>
